<svg xmlns="http://www.w3.org/2000/svg" width="16px" height="13px" viewBox="0 0 11 13" version="1.1">
<g>
<path style=" stroke:none;fill-rule:nonzero;fill:#526278;fill-opacity:1;" d="M 10.769531 7.074219 L 6.839844 11.136719 C 6.6875 11.296875 6.488281 11.375 6.285156 11.375 C 6.085938 11.375 5.882812 11.296875 5.730469 11.136719 C 5.421875 10.820312 5.421875 10.304688 5.730469 9.988281 L 8.320312 7.3125 L 0.785156 7.3125 C 0.351562 7.3125 0 6.949219 0 6.5 C 0 6.050781 0.351562 5.6875 0.785156 5.6875 L 8.320312 5.6875 L 5.730469 3.011719 C 5.425781 2.695312 5.425781 2.179688 5.730469 1.863281 C 6.039062 1.546875 6.535156 1.546875 6.84375 1.863281 L 10.769531 5.925781 C 11.074219 6.242188 11.074219 6.757812 10.769531 7.074219 Z M 10.769531 7.074219 "/>
</g>
</svg>