<svg xmlns="http://www.w3.org/2000/svg" width="40px" height="40px" viewBox="0 0 40 40" version="1.1">
<g>
<path style=" stroke:none;fill-rule:nonzero;fill:#fff;fill-opacity:1;" d="M 0.300781 4.285156 C 0.816406 3.195312 1.917969 2.5 3.125 2.5 L 36.875 2.5 C 38.085938 2.5 39.179688 3.195312 39.695312 4.285156 C 40.21875 5.378906 40.054688 6.667969 39.226562 7.605469 L 25 25.070312 L 25 35 C 25 35.945312 24.46875 36.8125 23.617188 37.234375 C 22.773438 37.65625 21.757812 37.570312 21 37 L 16 33.25 C 15.367188 32.78125 15 32.039062 15 31.25 L 15 25.070312 L 0.707031 7.605469 C -0.0585938 6.667969 -0.214844 5.378906 0.300781 4.285156 Z M 0.300781 4.285156 "/>
</g>
</svg>
